<svg xmlns="http://www.w3.org/2000/svg" viewBox="0 0 128 40"><defs><style>.cls-1{fill:#971b1f;}</style></defs><title>Kaissara</title><path d="M112.1 10.92h13.68a2.22 2.22 0 0 1 2.16 2.72l-3.46 14.65h-5.74l2.4-8.7s-4.44 1.35-6.3 2c0 0-3.76 1.2-3.33 3.32 0 0 .1 2.4 5.83 1.42l-.2 1.8h-7.52s-3.7-.37-3.46-3.64c0 0 .2-4.77 8.9-6.8 0 0 6.86-.73 6.93-3.25 0 0 .35-2.06-4.46-1.56l-6.62 1.43zm-32.24 0h13.7a2.22 2.22 0 0 1 2.15 2.72L92.27 28.3H86.5l2.42-8.7s-4.45 1.36-6.3 2c0 0-3.77 1.2-3.34 3.33 0 0 .07 2.4 5.8 1.42l-.2 1.8h-7.5s-3.7-.37-3.48-3.64c0 0 .2-4.76 8.9-6.8 0 0 6.86-.72 6.93-3.24 0 0 .35-2.06-4.46-1.56l-6.63 1.44zM3.84 10.9H9.4L5.46 28.17H0L3.84 10.9z"/><path d="M8.1 17.96l9.35-9.66h7.25L14.54 18.82l5.7 12.88H13.5L7.73 19.54l.37-1.58z" class="cls-1"/><path d="M24.7 10.92h13.7a2.22 2.22 0 0 1 2.15 2.72L37.08 28.3h-5.74l2.4-8.7s-4.44 1.36-6.3 2c0 0-3.76 1.2-3.33 3.33 0 0 .1 2.4 5.83 1.42l-.2 1.8H22.2s-3.7-.37-3.47-3.64c0 0 .2-4.76 8.9-6.8 0 0 6.86-.72 6.93-3.24 0 0 .35-2.06-4.46-1.56l-6.63 1.44zm17.85-.02h6.1l-4.18 17.4h-6.1l4.18-17.4zm55.45.02L93.84 28.3h5.35l2.56-10.3a2.28 2.28 0 0 1 .3-.67c.56-.9 2.3-3.25 4.78-3.34H110v-3.1h-5.56L103 12.5v-1.6zm-21.87 0v3.5a9.52 9.52 0 0 0-4.84-1.07s-4 0-3.58 2.3c0 0 .35 1.2 2.44 2.7 0 0 5.3 4 2.66 7.5 0 0-1.3 2.18-2.34 2.43H58.05l2.7-2.92s6.46 2 7.18-1.33c0 0 .74-1.28-2.18-3.14 0 0-4-2.3-3.6-6.8 0 0 .47-2.8 2.22-3.2zm-12.33 0v3.5a9.52 9.52 0 0 0-4.8-1.07s-4 0-3.56 2.3a5.68 5.68 0 0 0 2.44 2.7s5.3 4 2.66 7.5c0 0-1.5 2.43-2.34 2.43h-12v-3.54s8.63 2.58 9.5-.7c0 0 .73-1.28-2.2-3.14 0 0-4-2.3-3.6-6.8 0 0 .48-2.77 2.23-3.2z"/></svg>